<svg width="175" height="175" viewBox="0 0 175 175" fill="none" xmlns="http://www.w3.org/2000/svg">
<mask id="mask0_217_2477" style="mask-type:luminance" maskUnits="userSpaceOnUse" x="42" y="123" width="91" height="14">
<path d="M42.0911 123.222H132.914V136.039H42.0911V123.222Z" fill="white"/>
</mask>
<g mask="url(#mask0_217_2477)">
<mask id="mask1_217_2477" style="mask-type:luminance" maskUnits="userSpaceOnUse" x="42" y="123" width="91" height="14">
<path d="M87.4999 123.222C62.4221 123.222 42.0911 126.091 42.0911 129.629C42.0911 133.17 62.4221 136.039 87.4999 136.039C112.578 136.039 132.909 133.17 132.909 129.629C132.909 126.091 112.578 123.222 87.4999 123.222Z" fill="white"/>
</mask>
<g mask="url(#mask1_217_2477)">
<path d="M42.0911 123.222H132.914V136.039H42.0911V123.222Z" fill="#DBE7F8"/>
</g>
</g>
<mask id="mask2_217_2477" style="mask-type:luminance" maskUnits="userSpaceOnUse" x="61" y="45" width="53" height="52">
<path d="M61.1096 45.3706H113.894V96.1716H61.1096V45.3706Z" fill="white"/>
</mask>
<g mask="url(#mask2_217_2477)">
<mask id="mask3_217_2477" style="mask-type:luminance" maskUnits="userSpaceOnUse" x="61" y="45" width="53" height="52">
<path d="M87.5 45.3706C72.9239 45.3706 61.1096 56.742 61.1096 70.7711C61.1096 84.7985 72.9239 96.1716 87.5 96.1716C102.076 96.1716 113.89 84.7985 113.89 70.7711C113.89 56.742 102.076 45.3706 87.5 45.3706Z" fill="white"/>
</mask>
<g mask="url(#mask3_217_2477)">
<path d="M61.1096 45.3706H113.894V96.1717H61.1096V45.3706Z" fill="#E7FFF3"/>
</g>
</g>
<mask id="mask4_217_2477" style="mask-type:luminance" maskUnits="userSpaceOnUse" x="61" y="53" width="53" height="54">
<path d="M61.1096 53.9819H113.89V106.764H61.1096V53.9819Z" fill="white"/>
</mask>
<g mask="url(#mask4_217_2477)">
<mask id="mask5_217_2477" style="mask-type:luminance" maskUnits="userSpaceOnUse" x="61" y="53" width="53" height="54">
<path d="M87.5 53.9819C72.9239 53.9819 61.1096 65.7981 61.1096 80.3723C61.1096 94.9483 72.9239 106.764 87.5 106.764C102.076 106.764 113.89 94.9483 113.89 80.3723C113.89 65.7981 102.076 53.9819 87.5 53.9819Z" fill="white"/>
</mask>
<g mask="url(#mask5_217_2477)">
<path d="M61.1096 53.9819H113.89V106.764H61.1096V53.9819Z" fill="#A8FFD5"/>
</g>
</g>
<mask id="mask6_217_2477" style="mask-type:luminance" maskUnits="userSpaceOnUse" x="61" y="62" width="53" height="54">
<path d="M61.1096 62.7119H113.89V115.494H61.1096V62.7119Z" fill="white"/>
</mask>
<g mask="url(#mask6_217_2477)">
<mask id="mask7_217_2477" style="mask-type:luminance" maskUnits="userSpaceOnUse" x="61" y="62" width="53" height="54">
<path d="M87.5 62.7119C72.9239 62.7119 61.1096 74.5281 61.1096 89.1041C61.1096 103.678 72.9239 115.494 87.5 115.494C102.076 115.494 113.89 103.678 113.89 89.1041C113.89 74.5281 102.076 62.7119 87.5 62.7119Z" fill="white"/>
</mask>
<g mask="url(#mask7_217_2477)">
<path d="M61.1096 62.7119H113.89V115.494H61.1096V62.7119Z" fill="white"/>
</g>
</g>
<mask id="mask8_217_2477" style="mask-type:luminance" maskUnits="userSpaceOnUse" x="61" y="62" width="54" height="68">
<path d="M61.1096 62.7119H114.098V129.5H61.1096V62.7119Z" fill="white"/>
</mask>
<g mask="url(#mask8_217_2477)">
<path d="M87.602 110.232C75.8314 110.232 66.2921 100.745 66.2921 89.0438C66.2921 77.3462 75.8314 67.8597 87.602 67.8597C99.3707 67.8597 108.91 77.3462 108.91 89.0438C108.91 100.745 99.3707 110.232 87.602 110.232ZM87.602 62.7136C72.9731 62.7136 61.115 74.5006 61.115 89.0438C61.115 112.377 87.602 129.502 87.602 129.502C87.602 129.502 114.087 112.377 114.087 89.0438C114.087 74.5006 102.227 62.7136 87.602 62.7136Z" fill="#49E99C"/>
</g>
<path d="M96.6328 92.8465C95.7487 92.8465 93.9166 92.8465 93.9166 91.3663C93.9166 90.103 95.3604 88.6629 96.6328 88.6629C97.9034 88.6629 98.9406 89.6929 98.9406 90.958C98.9406 92.1228 98.0565 92.8465 96.6328 92.8465ZM92.1612 94.6603C92.1612 94.8043 92.0445 94.9265 91.895 94.9265H83.3073C83.1614 94.9265 83.0411 94.8043 83.0411 94.6603V92.5603C83.0411 92.4163 83.1614 92.2997 83.3073 92.2997H91.895C92.0445 92.2997 92.1612 92.4163 92.1612 92.5603V94.6603ZM78.5732 92.8465C77.1495 92.8465 76.2653 92.1228 76.2653 90.958C76.2653 89.6929 77.2989 88.6629 78.5732 88.6629C79.8401 88.6629 81.2893 90.103 81.2893 91.3663C81.2893 92.8465 79.4536 92.8465 78.5732 92.8465ZM80.387 82.5343C80.7242 81.734 81.7505 81.0596 82.6255 81.0596H92.5804C93.4536 81.0596 94.4763 81.734 94.8172 82.5343L96.1916 85.7973C94.0187 85.2814 91.1531 85.0208 87.6021 85.0208C84.0492 85.0208 81.1872 85.2814 79.0107 85.7973L80.387 82.5343ZM101.279 90.0611C101.279 88.508 100.29 87.3158 98.3226 86.4754L99.7773 86.3296C99.9268 86.3168 100.062 86.2439 100.158 86.1327C100.255 86.0161 100.301 85.8702 100.286 85.7226L100.208 84.9187C100.18 84.6179 99.9195 84.3918 99.6114 84.4137L96.5508 84.3809L95.6302 82.1971C95.1508 81.0668 93.8127 80.1809 92.5804 80.1809H82.6255C81.3896 80.1809 80.0497 81.0668 79.5739 82.1971L78.6515 84.3809L75.5909 84.4137C75.281 84.3918 75.0221 84.6179 74.9948 84.9187L74.92 85.7226C74.9054 85.8702 74.9474 86.0161 75.044 86.1327C75.1406 86.2439 75.2737 86.3168 75.4232 86.3296L76.8797 86.4754C74.9127 87.3158 73.9211 88.508 73.9211 90.0611V90.3291C73.9193 91.7236 73.912 93.1601 75.044 94.2903C75.1716 94.4179 75.3174 94.54 75.4742 94.6567V97.4075C75.4742 97.8559 75.8424 98.2223 76.2927 98.2223H80.037C80.4872 98.2223 80.8518 97.8559 80.8518 97.4075V96.3155C82.6747 96.5416 84.9041 96.6473 87.6021 96.6473C90.2982 96.6473 92.5312 96.5416 94.3487 96.3155V97.4075C94.3487 97.8559 94.7151 98.2223 95.1653 98.2223H98.9114C99.3617 98.2223 99.7281 97.8559 99.7281 97.4075V94.6567C99.8849 94.54 100.031 94.4179 100.158 94.2903C101.29 93.1601 101.287 91.7236 101.279 90.3291V90.0611Z" fill="#49E99C"/>
</svg>
